<mxfile host="app.diagrams.net" modified="2022-07-21T06:51:38.484Z" agent="5.0 (X11; Linux x86_64) AppleWebKit/537.36 (KHTML, like Gecko) Chrome/103.0.5060.114 Safari/537.36" etag="C1YLMEGL_PERSoM8ojUo" version="20.1.3" type="github">
  <diagram id="dW8JxewHEJfzhUFPO9Hh" name="Page-1">
    <mxGraphModel dx="1422" dy="764" grid="1" gridSize="10" guides="1" tooltips="1" connect="1" arrows="1" fold="1" page="1" pageScale="1" pageWidth="827" pageHeight="1169" math="0" shadow="0">
      <root>
        <mxCell id="0" />
        <mxCell id="1" parent="0" />
        <mxCell id="EcXSjXzMzYxWGn0NXIHK-1" value="DB" style="shape=cylinder3;whiteSpace=wrap;html=1;boundedLbl=1;backgroundOutline=1;size=15;" vertex="1" parent="1">
          <mxGeometry x="496" y="90" width="60" height="80" as="geometry" />
        </mxCell>
        <mxCell id="EcXSjXzMzYxWGn0NXIHK-3" style="edgeStyle=orthogonalEdgeStyle;rounded=0;orthogonalLoop=1;jettySize=auto;html=1;exitX=1;exitY=0.5;exitDx=0;exitDy=0;entryX=0;entryY=0.5;entryDx=0;entryDy=0;entryPerimeter=0;" edge="1" parent="1" source="EcXSjXzMzYxWGn0NXIHK-2" target="EcXSjXzMzYxWGn0NXIHK-1">
          <mxGeometry relative="1" as="geometry" />
        </mxCell>
        <mxCell id="EcXSjXzMzYxWGn0NXIHK-2" value="API Engine" style="shape=process;whiteSpace=wrap;html=1;backgroundOutline=1;" vertex="1" parent="1">
          <mxGeometry x="210" y="40" width="120" height="60" as="geometry" />
        </mxCell>
        <mxCell id="EcXSjXzMzYxWGn0NXIHK-6" style="edgeStyle=orthogonalEdgeStyle;rounded=0;orthogonalLoop=1;jettySize=auto;html=1;entryX=0;entryY=0.5;entryDx=0;entryDy=0;entryPerimeter=0;" edge="1" parent="1" source="EcXSjXzMzYxWGn0NXIHK-4" target="EcXSjXzMzYxWGn0NXIHK-1">
          <mxGeometry relative="1" as="geometry" />
        </mxCell>
        <mxCell id="EcXSjXzMzYxWGn0NXIHK-4" value="Analytics&lt;br&gt;Engine" style="shape=process;whiteSpace=wrap;html=1;backgroundOutline=1;" vertex="1" parent="1">
          <mxGeometry x="210" y="150" width="120" height="60" as="geometry" />
        </mxCell>
        <mxCell id="EcXSjXzMzYxWGn0NXIHK-9" style="edgeStyle=orthogonalEdgeStyle;rounded=0;orthogonalLoop=1;jettySize=auto;html=1;" edge="1" parent="1" source="EcXSjXzMzYxWGn0NXIHK-7" target="EcXSjXzMzYxWGn0NXIHK-8">
          <mxGeometry relative="1" as="geometry" />
        </mxCell>
        <mxCell id="EcXSjXzMzYxWGn0NXIHK-7" value="User" style="shape=umlActor;verticalLabelPosition=bottom;verticalAlign=top;html=1;outlineConnect=0;" vertex="1" parent="1">
          <mxGeometry x="90" y="300" width="30" height="60" as="geometry" />
        </mxCell>
        <mxCell id="EcXSjXzMzYxWGn0NXIHK-11" style="edgeStyle=orthogonalEdgeStyle;rounded=0;orthogonalLoop=1;jettySize=auto;html=1;entryX=0;entryY=0.5;entryDx=0;entryDy=0;" edge="1" parent="1" source="EcXSjXzMzYxWGn0NXIHK-8" target="EcXSjXzMzYxWGn0NXIHK-10">
          <mxGeometry relative="1" as="geometry" />
        </mxCell>
        <mxCell id="EcXSjXzMzYxWGn0NXIHK-8" value="Registration" style="shape=process;whiteSpace=wrap;html=1;backgroundOutline=1;" vertex="1" parent="1">
          <mxGeometry x="200" y="300" width="120" height="60" as="geometry" />
        </mxCell>
        <mxCell id="EcXSjXzMzYxWGn0NXIHK-13" style="edgeStyle=orthogonalEdgeStyle;rounded=0;orthogonalLoop=1;jettySize=auto;html=1;entryX=0.5;entryY=0;entryDx=0;entryDy=0;" edge="1" parent="1" source="EcXSjXzMzYxWGn0NXIHK-10" target="EcXSjXzMzYxWGn0NXIHK-12">
          <mxGeometry relative="1" as="geometry" />
        </mxCell>
        <mxCell id="EcXSjXzMzYxWGn0NXIHK-10" value="Collect User Info" style="rounded=1;whiteSpace=wrap;html=1;" vertex="1" parent="1">
          <mxGeometry x="370" y="300" width="120" height="60" as="geometry" />
        </mxCell>
        <mxCell id="EcXSjXzMzYxWGn0NXIHK-14" style="edgeStyle=orthogonalEdgeStyle;rounded=0;orthogonalLoop=1;jettySize=auto;html=1;entryX=0.5;entryY=1;entryDx=0;entryDy=0;" edge="1" parent="1" source="EcXSjXzMzYxWGn0NXIHK-12" target="EcXSjXzMzYxWGn0NXIHK-10">
          <mxGeometry relative="1" as="geometry" />
        </mxCell>
        <mxCell id="EcXSjXzMzYxWGn0NXIHK-17" style="edgeStyle=orthogonalEdgeStyle;rounded=0;orthogonalLoop=1;jettySize=auto;html=1;entryX=1;entryY=0.5;entryDx=0;entryDy=0;" edge="1" parent="1" source="EcXSjXzMzYxWGn0NXIHK-12" target="EcXSjXzMzYxWGn0NXIHK-15">
          <mxGeometry relative="1" as="geometry">
            <Array as="points">
              <mxPoint x="550" y="520" />
            </Array>
          </mxGeometry>
        </mxCell>
        <mxCell id="EcXSjXzMzYxWGn0NXIHK-12" value="validation" style="rhombus;whiteSpace=wrap;html=1;" vertex="1" parent="1">
          <mxGeometry x="510" y="390" width="80" height="80" as="geometry" />
        </mxCell>
        <mxCell id="EcXSjXzMzYxWGn0NXIHK-19" style="edgeStyle=orthogonalEdgeStyle;rounded=0;orthogonalLoop=1;jettySize=auto;html=1;" edge="1" parent="1" source="EcXSjXzMzYxWGn0NXIHK-15" target="EcXSjXzMzYxWGn0NXIHK-18">
          <mxGeometry relative="1" as="geometry" />
        </mxCell>
        <mxCell id="EcXSjXzMzYxWGn0NXIHK-15" value="Generate and&lt;br&gt;send OTP" style="shape=process;whiteSpace=wrap;html=1;backgroundOutline=1;" vertex="1" parent="1">
          <mxGeometry x="370" y="490" width="120" height="60" as="geometry" />
        </mxCell>
        <mxCell id="EcXSjXzMzYxWGn0NXIHK-20" style="edgeStyle=orthogonalEdgeStyle;rounded=0;orthogonalLoop=1;jettySize=auto;html=1;entryX=0.5;entryY=1;entryDx=0;entryDy=0;" edge="1" parent="1" source="EcXSjXzMzYxWGn0NXIHK-18" target="EcXSjXzMzYxWGn0NXIHK-15">
          <mxGeometry relative="1" as="geometry">
            <Array as="points">
              <mxPoint x="260" y="590" />
              <mxPoint x="430" y="590" />
            </Array>
          </mxGeometry>
        </mxCell>
        <mxCell id="EcXSjXzMzYxWGn0NXIHK-18" value="Validate OTP" style="rhombus;whiteSpace=wrap;html=1;" vertex="1" parent="1">
          <mxGeometry x="220" y="480" width="80" height="80" as="geometry" />
        </mxCell>
      </root>
    </mxGraphModel>
  </diagram>
</mxfile>
